<svg width="66" height="66" viewBox="0 0 66 66" fill="none" xmlns="http://www.w3.org/2000/svg">
<path d="M47.85 0C57.8741 0 66 8.91892 66 21.4054C66 46.3784 41.25 60.6487 33 66C24.75 60.6487 0 46.3784 0 21.4054C0 8.91892 8.25 0 18.15 0C24.2879 0 29.7 3.56757 33 7.13514C36.3 3.56757 41.712 0 47.85 0Z" fill="#EDEDED"/>
<path d="M44.7 7C52.5978 7 59 14.027 59 23.8649C59 43.5405 39.5 54.7838 33 59C26.5 54.7838 7 43.5405 7 23.8649C7 14.027 13.5 7 21.3 7C26.1359 7 30.4 9.81081 33 12.6216C35.6 9.81081 39.864 7 44.7 7Z" fill="#EBB4C6"/>
<path d="M14.8608 33V24.2727H16.4418V31.6747H20.2855V33H14.8608ZM24.4446 33.1278C23.8054 33.1278 23.2514 32.9872 22.7827 32.706C22.3139 32.4247 21.9503 32.0312 21.6918 31.5256C21.4361 31.0199 21.3082 30.429 21.3082 29.7528C21.3082 29.0767 21.4361 28.4844 21.6918 27.9759C21.9503 27.4673 22.3139 27.0724 22.7827 26.7912C23.2514 26.5099 23.8054 26.3693 24.4446 26.3693C25.0838 26.3693 25.6378 26.5099 26.1065 26.7912C26.5753 27.0724 26.9375 27.4673 27.1932 27.9759C27.4517 28.4844 27.581 29.0767 27.581 29.7528C27.581 30.429 27.4517 31.0199 27.1932 31.5256C26.9375 32.0312 26.5753 32.4247 26.1065 32.706C25.6378 32.9872 25.0838 33.1278 24.4446 33.1278ZM24.4531 31.892C24.7997 31.892 25.0895 31.7969 25.3224 31.6065C25.5554 31.4134 25.7287 31.1548 25.8423 30.831C25.9588 30.5071 26.017 30.1463 26.017 29.7486C26.017 29.348 25.9588 28.9858 25.8423 28.6619C25.7287 28.3352 25.5554 28.0753 25.3224 27.8821C25.0895 27.6889 24.7997 27.5923 24.4531 27.5923C24.098 27.5923 23.8026 27.6889 23.5668 27.8821C23.3338 28.0753 23.1591 28.3352 23.0426 28.6619C22.929 28.9858 22.8722 29.348 22.8722 29.7486C22.8722 30.1463 22.929 30.5071 23.0426 30.831C23.1591 31.1548 23.3338 31.4134 23.5668 31.6065C23.8026 31.7969 24.098 31.892 24.4531 31.892ZM34.5142 26.4545L32.1832 33H30.4787L28.1477 26.4545H29.7926L31.2969 31.3168H31.3651L32.8736 26.4545H34.5142ZM38.2567 33.1278C37.6005 33.1278 37.0337 32.9915 36.5565 32.7187C36.082 32.4432 35.717 32.054 35.4613 31.5511C35.2056 31.0455 35.0778 30.4503 35.0778 29.7656C35.0778 29.0923 35.2056 28.5014 35.4613 27.9929C35.7198 27.4815 36.0806 27.0838 36.5437 26.7997C37.0067 26.5128 37.5508 26.3693 38.1758 26.3693C38.5792 26.3693 38.9599 26.4347 39.3178 26.5653C39.6786 26.6932 39.9968 26.892 40.2724 27.1619C40.5508 27.4318 40.7695 27.7756 40.9286 28.1932C41.0877 28.608 41.1673 29.1023 41.1673 29.6761V30.1491H35.8022V29.1094H39.6886C39.6857 28.8139 39.6218 28.5511 39.4968 28.321C39.3718 28.0881 39.1971 27.9048 38.9727 27.7713C38.7511 27.6378 38.4925 27.571 38.1971 27.571C37.8817 27.571 37.6048 27.6477 37.3661 27.8011C37.1275 27.9517 36.9414 28.1506 36.8079 28.3977C36.6772 28.642 36.6104 28.9105 36.6076 29.2031V30.1108C36.6076 30.4915 36.6772 30.8182 36.8164 31.0909C36.9556 31.3608 37.1502 31.5682 37.4002 31.7131C37.6502 31.8551 37.9428 31.9261 38.2781 31.9261C38.5025 31.9261 38.7056 31.8949 38.8874 31.8324C39.0692 31.767 39.2269 31.6719 39.3604 31.5469C39.494 31.4219 39.5948 31.267 39.663 31.0824L41.1033 31.2443C41.0124 31.625 40.8391 31.9574 40.5835 32.2415C40.3306 32.5227 40.0067 32.7415 39.6119 32.8977C39.217 33.0511 38.7653 33.1278 38.2567 33.1278ZM44.0149 24.2727V33H42.4723V24.2727H44.0149ZM46.56 35.4545C46.3498 35.4545 46.1552 35.4375 45.9762 35.4034C45.8001 35.3722 45.6594 35.3352 45.5543 35.2926L45.9123 34.0909C46.1367 34.1562 46.337 34.1875 46.5131 34.1847C46.6893 34.1818 46.8441 34.1264 46.9776 34.0185C47.114 33.9134 47.229 33.7372 47.3228 33.4901L47.4549 33.1364L45.0813 26.4545H46.7177L48.2262 31.3977H48.2944L49.8072 26.4545H51.4478L48.8271 33.7926C48.7049 34.1392 48.543 34.4361 48.3413 34.6832C48.1396 34.9332 47.8924 35.1236 47.5998 35.2543C47.31 35.3878 46.9634 35.4545 46.56 35.4545Z" fill="#DA4363"/>
</svg>
